<?xml version="1.0" encoding="UTF-8"?>
<svg version="1.1" xmlns="http://www.w3.org/2000/svg" width="100" height="100">
<path d="M0 0 C11.61044611 7.87971198 19.15935154 19.2066008 22.3125 32.875 C23.89717002 49.02312243 21.49670209 62.85642305 11.3125 75.875 C2.63554281 85.40912627 -9.20905927 92.57459012 -22.32421875 93.2109375 C-38.27522126 93.49821567 -51.00429952 90.68762883 -63.1640625 79.62109375 C-73.96142781 68.37233356 -78.11642811 55.7894671 -78.05102539 40.50610352 C-77.76224063 26.46859694 -72.13689804 14.79262043 -62 5.0625 C-44.23015437 -10.05270406 -19.90521865 -11.59766872 0 0 Z " fill="#DBEEFE" transform="translate(77.6875,7.125)"/>
<path d="M0 0 C2 3 2 3 2 10 C-8.89 10 -19.78 10 -31 10 C-31 3 -31 3 -28.875 0.1875 C-20.19292832 -6.41842411 -9.14244181 -5.25690404 0 0 Z " fill="#2275BF" transform="translate(57,56)"/>
<path d="M0 0 C3.7 1.4 3.7 1.4 5 4 C5.45523013 11.16987448 5.45523013 11.16987448 3.9375 13.9375 C0.88826749 15.60965977 -1.53241058 15.94021398 -5 16 C-7.9375 14.5625 -7.9375 14.5625 -10 12 C-10.65337886 9.19734858 -10.61554992 6.80736787 -10 4 C-7.27424658 -0.1934668 -4.83563644 -0.60445455 0 0 Z " fill="#2276BF" transform="translate(45,34)"/>
<path d="M0 0 C1.32 0 2.64 0 4 0 C4 1.32 4 2.64 4 4 C5.32 4 6.64 4 8 4 C8 5.32 8 6.64 8 8 C6.68 8 5.36 8 4 8 C4 9.32 4 10.64 4 12 C2.68 12 1.36 12 0 12 C0 10.68 0 9.36 0 8 C-1.32 8 -2.64 8 -4 8 C-4 6.68 -4 5.36 -4 4 C-2.68 4 -1.36 4 0 4 C0 2.68 0 1.36 0 0 Z " fill="#1F73BE" transform="translate(67,40)"/>
<path d="M0 0 C3.65316671 1.24976756 4.78065836 1.67098753 7 5 C6.85466304 8.99676649 6.57509569 11.27649252 4.0625 14.4375 C2 16 2 16 0 16 C0.33 15.01 0.66 14.02 1 13 C1.09308544 11.33541327 1.12996185 9.66718003 1.125 8 C1.12886719 6.700625 1.12886719 6.700625 1.1328125 5.375 C1.09594205 2.84988305 1.09594205 2.84988305 0 0 Z " fill="#3B86C8" transform="translate(52,34)"/>
<path d="M0 0 C2.91517292 1.07401108 4.77810176 1.77810176 7 4 C7.26991906 6.68839385 7.08737357 9.29141936 7 12 C5.68 12 4.36 12 3 12 C2.86722656 11.30132812 2.73445313 10.60265625 2.59765625 9.8828125 C2.42105469 8.97273438 2.24445312 8.06265625 2.0625 7.125 C1.88847656 6.22007813 1.71445312 5.31515625 1.53515625 4.3828125 C1.10036299 2.00043683 1.10036299 2.00043683 0 0 Z " fill="#2F7EC4" transform="translate(60,54)"/>
</svg>
