<?xml version="1.0" encoding="UTF-8"?>
<svg version="1.1" xmlns="http://www.w3.org/2000/svg" width="100" height="100">
<path d="M0 0 C11.61044611 7.87971198 19.15935154 19.2066008 22.3125 32.875 C23.89717002 49.02312243 21.49670209 62.85642305 11.3125 75.875 C2.63554281 85.40912627 -9.20905927 92.57459012 -22.32421875 93.2109375 C-38.27522126 93.49821567 -51.00429952 90.68762883 -63.1640625 79.62109375 C-73.96142781 68.37233356 -78.11642811 55.7894671 -78.05102539 40.50610352 C-77.76224063 26.46859694 -72.13689804 14.79262043 -62 5.0625 C-44.23015437 -10.05270406 -19.90521865 -11.59766872 0 0 Z " fill="#DAEEFE" transform="translate(77.6875,7.125)"/>
<path d="M0 0 C4.24362668 4.63664477 5.81309337 10.98361683 7.92602539 16.78955078 C8.68409451 18.86567338 9.4594729 20.9347515 10.23632812 23.00390625 C10.72502454 24.33294177 11.21268918 25.66235722 11.69921875 26.9921875 C12.14096436 28.19214355 12.58270996 29.39209961 13.0378418 30.62841797 C14.00872023 34.0305573 14.5019142 36.49562448 14 40 C10.41793276 43.64832689 5.33459216 44.9680681 0.625 46.6875 C-0.21289062 47.00783203 -1.05078125 47.32816406 -1.9140625 47.65820312 C-10.64070589 50.87580984 -10.64070589 50.87580984 -15 50 C-18.80036477 44.64157889 -20.6848933 38.25611543 -22.92602539 32.13500977 C-23.68538307 30.06826167 -24.46039012 28.00783668 -25.23632812 25.94726562 C-25.72492638 24.62275253 -26.21258823 23.29789356 -26.69921875 21.97265625 C-27.14096436 20.77906494 -27.58270996 19.58547363 -28.0378418 18.35571289 C-29.00004154 14.99985513 -29.38261964 12.46519896 -29 9 C-24.77977811 5.29395071 -19.73135617 3.52169254 -14.5 1.6875 C-13.76652344 1.41099609 -13.03304687 1.13449219 -12.27734375 0.84960938 C-7.87790974 -0.71262256 -4.5858952 -1.58483143 0 0 Z " fill="#2175BF" transform="translate(63,24)"/>
<path d="M0 0 C3.91870446 0.58054881 6.35855798 2.05667889 9 5 C9.25829338 8.88222776 8.21787251 12.34638247 7 16 C0.45454545 13.63636364 0.45454545 13.63636364 -2 11 C-2.46369995 6.74941713 -2.33012265 3.64081664 0 0 Z " fill="#D5EAFC" transform="translate(52,41)"/>
<path d="M0 0 C2.60649468 2.60649468 3.44024981 5.53134321 4.625 8.9375 C4.85445312 9.57107422 5.08390625 10.20464844 5.3203125 10.85742188 C6.32801716 13.70958596 7 15.95183307 7 19 C4.625 19.125 4.625 19.125 2 19 C0 17 0 17 -0.1953125 13.0859375 C-0.18200376 11.51550649 -0.15813602 9.94513779 -0.125 8.375 C-0.11597656 7.57320312 -0.10695312 6.77140625 -0.09765625 5.9453125 C-0.07406223 3.96341477 -0.03819065 1.98167019 0 0 Z " fill="#287AC1" transform="translate(34,55)"/>
<path d="M0 0 C0.33 0 0.66 0 1 0 C1 5.28 1 10.56 1 16 C-3 14 -3 14 -4 13 C-3.60918594 8.01712068 -2.44012039 4.34977982 0 0 Z " fill="#2577C0" transform="translate(27,52)"/>
</svg>
